<?xml version="1.0" encoding="UTF-8" standalone="no"?><!DOCTYPE svg PUBLIC "-//W3C//DTD SVG 1.1//EN" "http://www.w3.org/Graphics/SVG/1.1/DTD/svg11.dtd"><svg width="100%" height="100%" viewBox="0 0 500 500" version="1.1" xmlns="http://www.w3.org/2000/svg" xmlns:xlink="http://www.w3.org/1999/xlink" xml:space="preserve" xmlns:serif="http://www.serif.com/" style="fill-rule:evenodd;clip-rule:evenodd;stroke-linejoin:round;stroke-miterlimit:1.41421;"><path d="M325.841,406.719c14.302,3.178 27.01,6.553 38.123,10.127c11.114,3.573 19.074,6.983 23.882,10.23c5.282,3.567 6.795,6.836 4.538,9.806c-2.256,2.97 -9.346,5.095 -21.27,6.375c-11.923,1.28 -26.867,1.428 -44.832,0.444c-22.141,-1.213 -46.736,-4.062 -73.785,-8.545c-27.048,-4.484 -49.733,-9.455 -68.055,-14.916c-18.321,-5.46 -30.865,-10.474 -37.631,-15.044c-5.163,-3.487 -6.921,-6.64 -5.273,-9.459c1.648,-2.819 7.256,-5.016 16.824,-6.591l-35.404,-3.818l-15.935,-10.762l152.981,16.337c21.276,2.271 32.958,3.463 35.047,3.578c3.76,0.206 6.39,-0.028 7.888,-0.701c1.499,-0.673 1.388,-1.59 -0.333,-2.752c-3.145,-2.125 -11.517,-5.143 -25.116,-9.055c-17.906,-5.18 -38.198,-9.616 -60.874,-13.307c-22.677,-3.692 -43.972,-6.083 -63.886,-7.174c-23.255,-1.274 -42.442,-0.751 -57.56,1.569c-15.118,2.321 -23.705,6.546 -25.761,12.676c-2.056,6.13 3,13.303 15.166,21.519c13.887,9.379 34.197,18.364 60.93,26.955c26.732,8.591 57.498,15.801 92.296,21.63c34.799,5.829 68.491,9.636 101.077,11.422c34.118,1.869 60.341,1.345 78.669,-1.573c18.327,-2.918 27.396,-8.093 27.204,-15.525c-0.191,-7.431 -7.557,-16.057 -22.098,-25.877c-15.549,-10.501 -34.703,-19.634 -57.462,-27.4c-22.759,-7.765 -45.523,-13.893 -68.292,-18.381l-16.113,-10.882c17.648,2.845 37.742,7.169 60.28,12.971c22.538,5.801 43.303,12.371 62.294,19.709c18.991,7.339 35.638,15.838 49.941,25.497c13.176,8.898 21.358,16.887 24.548,23.967c3.191,7.08 0.73,12.829 -7.381,17.246c-8.111,4.417 -20.553,7.4 -37.325,8.948c-21.335,1.925 -47.25,2.052 -77.747,0.381c-33.979,-1.862 -69.324,-5.64 -106.034,-11.334c-44.979,-6.958 -84.157,-15.485 -117.533,-25.582c-33.377,-10.097 -59.561,-21.558 -78.552,-34.384c-14.719,-9.94 -20.871,-18.48 -18.458,-25.622c2.413,-7.141 14.232,-12.23 35.457,-15.265c18.335,-2.568 41.637,-3.078 69.906,-1.529c40.384,2.213 82.296,8.266 125.736,18.159c38.931,8.836 64.806,17.583 77.625,26.24c4.095,2.766 5.942,4.92 5.54,6.463c-0.402,1.543 -2.725,2.567 -6.969,3.071c-2.71,0.33 -8.135,0.383 -16.273,0.158Zm-13.521,25.997c19.078,1.045 31.98,0.555 38.706,-1.47c6.726,-2.026 7.596,-4.722 2.611,-8.088c-3.324,-2.245 -9.158,-4.737 -17.502,-7.478c-8.345,-2.741 -18.789,-5.495 -31.334,-8.263c-12.544,-2.768 -26.951,-5.261 -43.222,-7.478c-16.271,-2.218 -31.509,-3.715 -45.713,-4.494c-18.939,-1.037 -31.628,-0.49 -38.066,1.644c-6.438,2.133 -6.779,5.143 -1.022,9.031c3.798,2.565 9.637,5.104 17.516,7.617c7.879,2.512 18.404,5.105 31.576,7.779c13.172,2.673 27.879,5.045 44.122,7.113c16.243,2.068 30.352,3.431 42.328,4.087Z" style="fill-rule:nonzero;"/><path d="M334.837,229.901c7.574,12.144 13.616,24.038 18.127,35.682c4.51,11.644 6.682,21.684 6.516,30.12c-0.183,9.269 -3.033,16.414 -8.55,21.437c-5.517,5.022 -13.879,6.397 -25.087,4.126c-11.207,-2.271 -23.439,-8.029 -36.697,-17.272c-16.341,-11.394 -32.623,-27.049 -48.848,-46.966c-16.224,-19.917 -28.323,-39.043 -36.296,-57.377c-7.973,-18.334 -11.842,-33.438 -11.608,-45.31c0.179,-9.061 2.688,-16.075 7.527,-21.042c4.838,-4.967 12.095,-7.087 21.77,-6.36l-23.789,-21.971l0.552,-27.963l102.996,94.617c14.326,13.157 22.26,20.272 23.801,21.347c2.775,1.935 5.186,2.533 7.232,1.796c2.046,-0.738 3.099,-2.617 3.159,-5.637c0.109,-5.52 -2.883,-14.944 -8.975,-28.271c-7.987,-17.606 -18.824,-34.69 -32.51,-51.253c-13.686,-16.564 -27.877,-29.969 -42.574,-40.216c-17.163,-11.967 -33.283,-18.693 -48.361,-20.178c-15.077,-1.486 -27.261,3.48 -36.551,14.899c-9.29,11.419 -14.145,27.803 -14.567,49.153c-0.481,24.37 4.706,50.555 15.561,78.554c10.856,27.998 26.683,54.87 47.48,80.616c20.798,25.745 43.221,47.001 67.27,63.769c25.179,17.556 46.974,27.129 65.383,28.721c18.41,1.592 32.164,-5.078 41.263,-20.008c9.098,-14.931 13.9,-35.154 14.403,-60.67c0.539,-27.286 -3.531,-53.299 -12.211,-78.039c-8.68,-24.74 -19.404,-46.206 -32.172,-64.4l0.558,-28.276c10.686,12.836 21.503,29.616 32.45,50.341c10.947,20.724 19.508,42.266 25.682,64.625c6.174,22.36 9.014,46.089 8.518,71.188c-0.457,23.121 -3.807,42.402 -10.05,57.845c-6.244,15.443 -15.385,25.936 -27.424,31.479c-12.039,5.543 -25.784,6.464 -41.235,2.765c-19.596,-4.794 -40.648,-15.038 -63.155,-30.731c-25.076,-17.484 -48.868,-39.351 -71.375,-65.602c-27.6,-32.125 -48.569,-65.037 -62.906,-98.736c-14.338,-33.7 -21.177,-67.213 -20.519,-100.54c0.51,-25.828 6.184,-45.39 17.021,-58.686c10.838,-13.295 26.702,-18.678 47.594,-16.148c17.979,2.294 37.4,10.715 58.262,25.261c29.804,20.78 56.058,49.855 78.762,87.223c20.386,33.43 30.357,61.392 29.912,83.888c-0.142,7.186 -1.335,12.239 -3.581,15.161c-2.246,2.921 -5.393,4.026 -9.442,3.314c-2.596,-0.437 -7.035,-2.529 -13.316,-6.275Zm-43.27,46.482c14.079,9.817 25.091,14.063 33.036,12.74c7.944,-1.324 12.003,-6.36 12.175,-15.108c0.116,-5.832 -1.484,-13.177 -4.8,-22.035c-3.315,-8.857 -8.306,-18.593 -14.973,-29.206c-6.667,-10.614 -15.179,-21.432 -25.536,-32.454c-10.357,-11.023 -20.777,-20.188 -31.26,-27.497c-13.977,-9.746 -24.889,-13.79 -32.736,-12.135c-7.846,1.656 -11.869,7.535 -12.069,17.637c-0.132,6.665 1.415,14.105 4.638,22.318c3.224,8.213 8.482,17.659 15.772,28.338c7.291,10.679 16.196,21.375 26.716,32.088c10.519,10.714 20.198,19.151 29.037,25.314Z" style="fill-rule:nonzero;"/></svg>
